<svg preserveAspectRatio="none" width="100%" height="100%" overflow="visible" style="display: block;" viewBox="0 0 44.0698 44.0698" fill="none" xmlns="http://www.w3.org/2000/svg">
<g id="lucide/banana">
<path id="Vector" d="M7.34241 23.8715C13.7693 20.199 22.0324 20.199 25.7048 27.544C27.2585 26.7508 28.9912 26.3735 30.7341 26.449C32.4769 26.5244 34.1705 27.0501 35.6498 27.9746C37.1291 28.8992 38.3437 30.1912 39.1753 31.7247C40.0068 33.2583 40.427 34.9811 40.3948 36.7252M9.45409 32.8508C19.5902 30.0597 25.3376 20.199 22.3078 10.8158C21.206 7.34534 21.1142 3.67285 23.8686 3.67285C29.7813 3.67285 33.0498 13.7722 33.0498 18.3628C33.0498 30.2984 25.3376 40.3977 13.7876 40.3977C9.38064 40.3977 3.66992 40.3977 3.66992 36.7252C3.66992 33.9709 5.76324 33.8791 9.45409 32.8508Z" stroke="var(--stroke-0, white)" stroke-width="2.75437" stroke-linecap="round" stroke-linejoin="round"/>
</g>
</svg>
