<svg preserveAspectRatio="none" width="100%" height="100%" overflow="visible" style="display: block;" viewBox="0 0 32.6307 32.6307" fill="none" xmlns="http://www.w3.org/2000/svg">
<g id="lucide/wheat">
<path id="Vector" d="M2.71875 29.912L21.7533 10.8774M21.7533 10.8774H24.4725C25.9149 10.8774 27.2982 10.3044 28.3181 9.28451C29.338 8.26461 29.911 6.88132 29.911 5.43895V2.71973H27.1918C25.7494 2.71973 24.3661 3.2927 23.3462 4.31261C22.3263 5.33252 21.7533 6.71581 21.7533 8.15817V10.8774ZM8.87779 23.7529C9.76616 22.861 10.265 21.6535 10.265 20.3947C10.265 19.1359 9.76616 17.9283 8.87779 17.0364L6.79759 14.9562L4.71738 17.0364C3.82901 17.9283 3.33022 19.1359 3.33022 20.3947C3.33022 21.6535 3.82901 22.861 4.71738 23.7529L6.79759 25.8331M8.87779 23.7529L6.79759 25.8331M8.87779 23.7529C9.76967 22.8646 10.9772 22.3658 12.236 22.3658C13.4949 22.3658 14.7024 22.8646 15.5943 23.7529L17.6745 25.8331L15.5943 27.9133C14.7024 28.8017 13.4949 29.3005 12.236 29.3005C10.9772 29.3005 9.76967 28.8017 8.87779 27.9133L6.79759 25.8331M14.3162 18.3145C15.2046 17.4226 15.7034 16.2151 15.7034 14.9562C15.7034 13.6974 15.2046 12.4899 14.3162 11.598L12.236 9.51779L10.1558 11.598C9.26745 12.4899 8.76867 13.6974 8.76867 14.9562C8.76867 16.2151 9.26745 17.4226 10.1558 18.3145L12.236 20.3947M14.3162 18.3145L12.236 20.3947M14.3162 18.3145C15.2081 17.4261 16.4157 16.9273 17.6745 16.9273C18.9333 16.9273 20.1408 17.4261 21.0327 18.3145L23.1129 20.3947L21.0327 22.4749C20.1408 23.3633 18.9333 23.862 17.6745 23.862C16.4157 23.862 15.2081 23.3633 14.3162 22.4749L12.236 20.3947M17.6745 14.9562L19.7547 17.0364C20.6466 17.9248 21.8541 18.4236 23.1129 18.4236C24.3718 18.4236 25.5793 17.9248 26.4712 17.0364L28.5514 14.9562L26.4712 12.876C25.5793 11.9877 24.3718 11.4889 23.1129 11.4889C21.8541 11.4889 20.6466 11.9877 19.7547 12.876C20.6431 11.9842 21.1418 10.7766 21.1418 9.51779C21.1418 8.25896 20.6431 7.05142 19.7547 6.15954L17.6745 4.07934L15.5943 6.15954C14.7059 7.05142 14.2071 8.25896 14.2071 9.51779C14.2071 10.7766 14.7059 11.9842 15.5943 12.876L17.6745 14.9562ZM19.7547 12.876L17.6745 14.9562" stroke="var(--stroke-0, white)" stroke-width="2.03942" stroke-linecap="round" stroke-linejoin="round"/>
</g>
</svg>
