<svg preserveAspectRatio="none" width="100%" height="100%" overflow="visible" style="display: block;" viewBox="0 0 32.6307 32.6307" fill="none" xmlns="http://www.w3.org/2000/svg">
<g id="lucide/bean">
<path id="Vector" d="M12.2364 12.2374C13.1066 11.3673 13.5335 10.1681 13.8204 8.97162C14.2858 7.02814 15.4485 5.32312 17.0877 4.18006C18.727 3.037 20.7288 2.53544 22.7134 2.77053C24.6979 3.00563 26.5272 3.96102 27.854 5.45545C29.1808 6.94988 29.9129 8.87936 29.9114 10.8778C29.9114 21.3903 21.3893 29.9124 10.8768 29.9124C8.87838 29.9139 6.9489 29.1818 5.45448 27.855C3.96005 26.5281 3.00465 24.6989 2.76955 22.7144C2.53446 20.7298 3.03602 18.728 4.17908 17.0887C5.32214 15.4494 7.02716 14.2868 8.97065 13.8214C10.1685 13.5345 11.3663 13.1076 12.2364 12.2374Z" stroke="var(--stroke-0, white)" stroke-width="2.03942" stroke-linecap="round" stroke-linejoin="round"/>
</g>
</svg>
