<svg preserveAspectRatio="none" width="100%" height="100%" overflow="visible" style="display: block;" viewBox="0 0 44.0698 44.0698" fill="none" xmlns="http://www.w3.org/2000/svg">
<g id="lucide/paper-bag">
<path id="Vector" d="M9.84864 7.06389C7.344 11.0155 5.50776 17.7214 5.50776 23.2302V34.8867C5.50776 35.8607 5.89468 36.7948 6.5834 37.4835C7.27213 38.1722 8.20624 38.5591 9.18024 38.5591H34.8877C35.8617 38.5591 36.7958 38.1722 37.4845 37.4835C38.1732 36.7948 38.5601 35.8607 38.5601 34.8867V25.7054C38.5601 21.4196 35.2255 17.1338 33.7455 12.8481M12.8527 5.50675H12.9762M12.9762 5.50675H33.7473C34.4295 5.50678 35.0982 5.69679 35.6784 6.0555C36.2586 6.41421 36.7275 6.92743 37.0324 7.53764L38.36 10.1947C38.4998 10.4746 38.5659 10.7855 38.5518 11.0981C38.5377 11.4107 38.444 11.7144 38.2796 11.9806C38.1151 12.2468 37.8854 12.4665 37.6121 12.619C37.3389 12.7714 37.0313 12.8516 36.7184 12.8517H21.0644C20.3823 12.8517 19.7136 12.6617 19.1334 12.303C18.5531 11.9443 18.0843 11.4311 17.7794 10.8208L16.1396 7.5358C15.9239 7.10428 15.6253 6.71948 15.2609 6.40335C14.8965 6.08722 14.4734 5.84597 14.0157 5.69336C13.6769 5.58039 13.3268 5.51844 12.9762 5.50675ZM12.9762 5.50675C12.3703 5.48655 11.7632 5.61642 11.2111 5.89236C10.3396 6.32799 9.67689 7.09197 9.36869 8.01624C9.06048 8.94051 9.13207 9.94935 9.56769 10.8208L13.7194 19.1243C14.3569 20.3991 14.6889 21.8049 14.689 23.2302V38.5591" stroke="var(--stroke-0, white)" stroke-width="2.75437" stroke-linecap="round" stroke-linejoin="round"/>
</g>
</svg>
