<svg preserveAspectRatio="none" width="100%" height="100%" overflow="visible" style="display: block;" viewBox="0 0 28.0559 37.6431" fill="none" xmlns="http://www.w3.org/2000/svg">
<path id="Vector" d="M3.01038 17.9034C4.59961 16.7115 6.53257 16.0671 8.51911 16.0671C10.5057 16.0671 12.4386 16.7115 14.0278 17.9034C15.6171 19.0953 17.55 19.7396 19.5366 19.7396C21.5231 19.7396 23.4561 19.0953 25.0453 17.9034M1.38714 3.4044C1.3604 3.14863 1.38767 2.8901 1.4672 2.64555C1.54673 2.401 1.67674 2.17588 1.8488 1.98477C2.02087 1.79366 2.23116 1.64082 2.46606 1.53616C2.70095 1.43149 2.95521 1.37733 3.21237 1.37718H24.8433C25.1006 1.3773 25.3551 1.43151 25.5901 1.53629C25.8251 1.64106 26.0355 1.79407 26.2076 1.98539C26.3797 2.1767 26.5097 2.40205 26.5891 2.64682C26.6685 2.8916 26.6956 3.15033 26.6685 3.40623L23.5579 32.9789C23.4627 33.8815 23.0365 34.7168 22.3618 35.3237C21.687 35.9307 20.8114 36.2663 19.9038 36.2658H8.15186C7.24113 36.2708 6.36101 35.9373 5.68237 35.3299C5.00373 34.7225 4.57499 33.8847 4.47938 32.9789L1.38714 3.4044Z" stroke="var(--stroke-0, white)" stroke-width="2.75437" stroke-linecap="round" stroke-linejoin="round"/>
</svg>
