<svg preserveAspectRatio="none" width="100%" height="100%" overflow="visible" style="display: block;" viewBox="0 0 32.6307 32.6307" fill="none" xmlns="http://www.w3.org/2000/svg">
<g id="lucide/beef">
<path id="Vector" d="M25.1555 8.15888L28.133 14.2771C28.703 16.0295 28.7091 17.9164 28.1506 19.6725C27.5921 21.4285 26.497 22.9652 25.0195 24.0663C20.9407 27.4654 14.9584 29.9127 9.51995 29.9127C8.76299 29.9116 8.02124 29.7 7.37773 29.3014C6.73421 28.9028 6.2143 28.333 5.87619 27.6557L3.26574 22.4348M22.3003 18.6279C23.4154 17.7898 24.3163 16.6997 24.9294 15.4467C25.5424 14.1937 25.85 12.8134 25.8272 11.4186C25.8044 10.0239 25.4518 8.65436 24.7982 7.42205C24.1446 6.18973 23.2085 5.12965 22.0666 4.3285C20.9247 3.52735 19.6093 3.00789 18.2281 2.81261C16.8469 2.61733 15.4391 2.75178 14.1199 3.20496C12.8006 3.65814 11.6074 4.41718 10.6377 5.41998C9.66808 6.42279 8.94959 7.64089 8.54103 8.97464C7.04546 13.2302 7.48053 14.2771 4.21747 17.2411C3.56725 17.7742 3.09765 18.4951 2.87296 19.3054C2.64826 20.1156 2.67944 20.9754 2.96223 21.7672C3.24503 22.5591 3.76561 23.2441 4.45273 23.7287C5.13985 24.2133 5.95993 24.4737 6.80073 24.4742C12.2392 24.4742 18.2215 22.0269 22.3003 18.6279ZM20.3968 11.5579C20.3968 13.4351 18.8751 14.9569 16.9978 14.9569C15.1206 14.9569 13.5988 13.4351 13.5988 11.5579C13.5988 9.68067 15.1206 8.15888 16.9978 8.15888C18.8751 8.15888 20.3968 9.68067 20.3968 11.5579Z" stroke="var(--stroke-0, white)" stroke-width="2.03942" stroke-linecap="round" stroke-linejoin="round"/>
</g>
</svg>
