<svg preserveAspectRatio="none" width="100%" height="100%" overflow="visible" style="display: block;" viewBox="0 0 44.0698 44.0698" fill="none" xmlns="http://www.w3.org/2000/svg">
<g id="lucide/milk">
<path id="Vector" d="M14.6937 3.67285H29.3836M16.5299 3.67285V8.79414C16.5299 10.2444 16.1005 11.6622 15.296 12.8688L14.0914 14.6756C13.2865 15.8827 12.8571 17.3012 12.8574 18.7521V36.7252C12.8574 37.6992 13.2443 38.6334 13.9331 39.3221C14.6218 40.0108 15.5559 40.3977 16.5299 40.3977H27.5474C28.5214 40.3977 29.4555 40.0108 30.1442 39.3221C30.8329 38.6334 31.2199 37.6992 31.2199 36.7252V18.7502C31.2198 17.3 30.7905 15.8822 29.9859 14.6756L28.7813 12.8688C27.9764 11.6616 27.547 10.2432 27.5474 8.7923V3.67285M12.8574 27.544C14.3113 26.9352 15.8718 26.6216 17.448 26.6216C19.0243 26.6216 20.5848 26.9352 22.0386 27.544C23.4925 28.1531 25.053 28.4668 26.6293 28.4668C28.2055 28.4668 29.766 28.1531 31.2199 27.544" stroke="var(--stroke-0, white)" stroke-width="2.75437" stroke-linecap="round" stroke-linejoin="round"/>
</g>
</svg>
