<svg preserveAspectRatio="none" width="100%" height="100%" overflow="visible" style="display: block;" viewBox="0 0 75.5857 75.5871" fill="none" xmlns="http://www.w3.org/2000/svg">
<g id="Group 48096030">
<path id="Union" d="M41.4895 19.4566C41.4895 20.9874 42.578 22.2892 43.9912 22.8775C45.4046 23.4658 47.062 23.2977 48.1446 22.2152L60.5583 9.80142C61.3006 9.05916 62.504 9.05916 63.2463 9.80142L65.7866 12.3417C66.5288 13.084 66.5288 14.2874 65.7865 15.0297L53.3709 27.4449C52.2889 28.5269 52.1207 30.1834 52.7086 31.5962C53.2966 33.009 54.598 34.0971 56.1283 34.0971H73.6849C74.7346 34.0971 75.5856 34.9481 75.5856 35.9978L75.5853 39.5899C75.5853 40.6396 74.7343 41.4905 73.6847 41.4905H56.1277C54.5975 41.4905 53.296 42.5784 52.7078 43.9911C52.1196 45.404 52.2877 47.0608 53.3698 48.143L65.7865 60.5597C66.5288 61.3019 66.5288 62.5054 65.7865 63.2477L63.2463 65.7876C62.504 66.5298 61.3006 66.5298 60.5584 65.7876L48.1411 53.3703C47.0592 52.2884 45.4028 52.1202 43.9901 52.7079C42.5774 53.2957 41.4895 54.5969 41.4895 56.1269V73.6864C41.4895 74.7361 40.6386 75.5871 39.5889 75.5871H35.9968C34.9471 75.5871 34.0961 74.7361 34.0961 73.6864L34.0957 56.1265C34.0957 54.5967 33.008 53.2957 31.5954 52.7083C30.1828 52.121 28.5266 52.2892 27.4449 53.371L15.0278 65.7884C14.2855 66.5307 13.0821 66.5307 12.3398 65.7885L9.79967 63.2486C9.05736 62.5063 9.05732 61.3029 9.79959 60.5606L22.2155 48.1443C23.2979 47.0619 23.466 45.4048 22.8778 43.9916C22.2897 42.5786 20.9881 41.4905 19.4576 41.4905H1.9008C0.851035 41.4905 5.34133e-05 40.6394 0.000119299 39.5897L0.000344748 35.9976C0.000410628 34.9479 0.851352 34.0971 1.90102 34.0971H19.457C20.9875 34.0971 22.2891 33.0088 22.877 31.5957C23.4648 30.1827 23.2966 28.5258 22.2144 27.4436L9.79957 15.0287C9.05731 14.2865 9.05731 13.083 9.79957 12.3408L12.3394 9.80096C13.0817 9.0587 14.2851 9.0587 15.0273 9.80096L27.4413 22.2149C28.5238 23.2974 30.181 23.4655 31.5943 22.8773C33.0074 22.2892 34.0957 20.9875 34.0957 19.4569V2.22751L34.0957 1.90028C34.096 0.85072 34.9469 0 35.9964 0H39.5889C40.6386 0 41.4895 0.850961 41.4895 1.90067V19.4566Z" fill="var(--fill-0, #333333)"/>
<path id="Ellipse 159" d="M30.0111 37.7944C27.9117 37.7944 26.1513 36.0482 26.8279 34.0608C26.9082 33.8251 26.9961 33.5918 27.0916 33.3611C27.6738 31.9556 28.5271 30.6786 29.6028 29.6028C30.6786 28.5271 31.9556 27.6738 33.3611 27.0916C34.7666 26.5094 36.273 26.2098 37.7944 26.2098C39.3157 26.2098 40.8221 26.5094 42.2276 27.0916C43.6331 27.6738 44.9101 28.5271 45.9859 29.6028C47.0616 30.6786 47.9149 31.9556 48.4971 33.3611C48.5926 33.5918 48.6805 33.8251 48.7608 34.0608C49.4374 36.0482 47.677 37.7944 45.5776 37.7944L37.7944 37.7944L30.0111 37.7944Z" fill="var(--fill-0, #1A1A1A)"/>
</g>
</svg>
