<svg preserveAspectRatio="none" width="100%" height="100%" overflow="visible" style="display: block;" viewBox="0 0 33.0301 33.0301" fill="none" xmlns="http://www.w3.org/2000/svg">
<g id="lucide/biceps-flexed">
<path id="Vector" d="M17.0776 17.9149C17.7049 16.4607 18.8146 15.2675 20.2195 14.5364C21.6243 13.8054 23.2384 13.5813 24.7893 13.9019C26.3401 14.2226 27.733 15.0684 28.7327 16.2966C29.7325 17.5248 30.278 19.0603 30.2772 20.644C30.2772 25.9646 24.7722 30.2777 17.891 30.2777C12.28 30.2777 6.67036 29.1492 3.61783 26.8894C3.03155 26.4545 2.74942 25.7444 2.76455 25.015C2.91457 17.5102 3.61508 2.75268 13.7622 2.75268C14.8572 2.75268 15.9074 3.18767 16.6817 3.96196C17.456 4.73626 17.891 5.78642 17.891 6.88144C17.891 7.61145 17.601 8.31156 17.0848 8.82776C16.5686 9.34395 15.8685 9.63395 15.1384 9.63395C13.6177 9.63395 12.8814 9.02289 12.3859 8.25769M20.6435 19.2677C19.8129 18.6444 18.852 18.2172 17.8328 18.0181C16.8137 17.8189 15.7626 17.853 14.7585 18.1178C13.7544 18.3826 12.8233 18.8713 12.0348 19.5471C11.2464 20.2229 10.6212 21.0684 10.206 22.0202M13.7127 9.3931C11.0358 10.9785 13.0741 17.8915 11.0097 20.644" stroke="var(--stroke-0, #67666C)" stroke-width="2.06438" stroke-linecap="round" stroke-linejoin="round"/>
</g>
</svg>
