<svg preserveAspectRatio="none" width="100%" height="100%" overflow="visible" style="display: block;" viewBox="0 0 33.0301 33.0301" fill="none" xmlns="http://www.w3.org/2000/svg">
<g id="lucide/pill">
<path id="Vector" d="M11.699 11.6964L21.3327 21.3301M14.4515 28.2114L28.214 14.4489C28.8571 13.8186 29.3689 13.0672 29.7197 12.2379C30.0706 11.4087 30.2536 10.5181 30.2582 9.61773C30.2627 8.71733 30.0887 7.82495 29.7462 6.99221C29.4038 6.15947 28.8996 5.40288 28.2629 4.76619C27.6262 4.1295 26.8696 3.62534 26.0369 3.28287C25.2042 2.9404 24.3118 2.76641 23.4114 2.77095C22.511 2.7755 21.6204 2.9585 20.7912 3.30937C19.9619 3.66023 19.2105 4.172 18.5802 4.81509L4.81771 18.5776C4.17462 19.2079 3.66284 19.9593 3.31198 20.7886C2.96111 21.6178 2.77811 22.5084 2.77357 23.4088C2.76902 24.3092 2.94301 25.2015 3.28548 26.0343C3.62796 26.867 4.13211 27.6236 4.7688 28.2603C5.40549 28.897 6.16208 29.4012 6.99482 29.7436C7.82757 30.0861 8.71994 30.2601 9.62034 30.2555C10.5207 30.251 11.4113 30.068 12.2406 29.7171C13.0698 29.3663 13.8213 28.8545 14.4515 28.2114Z" stroke="var(--stroke-0, #67666C)" stroke-width="2.06438" stroke-linecap="round" stroke-linejoin="round"/>
</g>
</svg>
