<svg preserveAspectRatio="none" width="100%" height="100%" overflow="visible" style="display: block;" viewBox="0 0 119.658 159.071" fill="none" xmlns="http://www.w3.org/2000/svg">
<path id="Subtract" d="M7.1135 0.213864C13.5457 -0.169674 22.577 0.0795671 29.1457 0.0800754L69.342 0.0908176L97.2199 0.0722629C102.216 0.0689588 107.458 -0.0894961 112.419 0.298825C116.877 0.64804 119.449 4.74849 119.491 8.91797C119.568 16.5162 119.468 24.0981 119.483 31.6895L119.526 46.085C119.535 48.9676 119.962 57.3484 118.062 59.3193C113.58 63.9686 105.679 66.324 99.9797 69.5469C96.2229 71.6711 90.9188 73.3225 87.7951 76.5186C83.3122 82.3092 92.6938 85.7864 95.9153 87.4551C102.684 91.0258 110.332 93.927 116.658 98.1797C120.568 100.808 119.537 110.276 119.529 114.577L119.51 132.948L119.505 146.296C119.517 151.983 120.878 158.593 113.201 159.016L44.6506 159.014L21.4563 159.045C17.1775 159.055 12.7893 159.129 8.51487 158.974C6.6259 158.905 6.13771 158.541 4.56467 157.737C3.02888 156.953 0.663106 154.227 0.435766 152.595C0.0326571 149.694 0.156269 145.619 0.161352 142.623L0.160376 126.024C0.15476 121.922 -0.402907 104.888 0.594946 101.871C1.16425 100.15 2.44733 98.7475 3.85178 97.6533C9.06247 93.594 30.1234 85.9924 32.4035 82.0078C33.0612 80.8582 33.2035 78.9057 32.7961 77.6611C32.4832 76.7046 31.5205 75.7951 30.7258 75.2256C28.6307 73.7242 26.0068 72.6495 23.6975 71.4961C17.8786 68.5901 11.8184 65.9056 6.1301 62.7627C3.71863 61.4304 1.38126 59.8018 0.604712 57.0068C-0.324524 53.6622 0.189633 48.995 0.190649 45.4941L0.208227 28.123C0.214327 21.6279 0.0836075 15.1154 0.27854 8.62793C0.407147 4.34348 3.01895 1.29843 7.1135 0.213864ZM75.8244 120.895C70.2049 114.295 67.9219 106.026 57.6897 107.233C56.5071 107.62 53.5835 108.593 52.8918 109.472C48.5513 114.99 37.364 127.367 35.6487 133.551C36.1476 134.956 37.3465 138.045 38.7131 138.292C44.6646 139.365 56.0246 138.914 62.0022 138.904C67.5955 138.927 73.3301 139.115 78.884 138.798C82.8317 138.563 85.0907 133.634 82.7961 130.445C80.5353 127.303 78.3234 123.829 75.8244 120.895Z" fill="var(--fill-0, #333333)"/>
</svg>
