<svg preserveAspectRatio="none" width="100%" height="100%" overflow="visible" style="display: block;" viewBox="0 0 134.318 113.818" fill="none" xmlns="http://www.w3.org/2000/svg">
<path id="Vector" d="M51.1149 4.17674C51.1128 1.90187 53.0064 0.0752538 55.2812 0.0741014C57.8274 0.0728116 60.4881 0.0195775 62.7828 0.0193683L85.6453 0.0188762C88.6404 0.0191151 91.8826 -0.0347641 94.9947 0.0384669C97.0676 0.0872438 98.817 1.51223 99.5537 3.45038C100.837 6.82753 102.404 10.0052 103.709 13.3778C105.515 18.0441 107.576 22.5193 109.422 27.1195L132.562 83.4361C138.675 98.0754 128.092 113.824 112.227 113.807L98.0471 113.792L13.8666 113.794L4.96825 113.818C2.22591 113.826 -0.000930983 111.604 2.92012e-07 108.862L0.0178512 56.2956C0.0187806 53.5589 2.245 51.3123 4.96546 51.6096C13.7531 52.5699 22.0549 56.0955 28.3148 62.1461C31.1696 64.9055 36.5876 64.6632 39.2705 61.7363C47.3029 52.9735 60.0682 48.897 71.7519 52.7208C77.1547 54.4552 81.9533 57.5629 85.7163 61.6753C86.7381 62.792 89.9342 61.6443 89.7105 60.1471C88.451 51.7145 87.2901 43.269 85.9391 34.8505C85.7381 33.5981 85.5193 32.3081 85.3177 31.0099C84.8598 28.0599 82.0641 25.9206 79.1293 26.4678C71.3581 27.917 63.5728 29.2902 55.7747 30.587C53.3446 30.9911 51.1375 29.1147 51.1353 26.6513L51.1149 4.17674Z" fill="var(--fill-0, #333333)"/>
</svg>
