<svg preserveAspectRatio="none" width="100%" height="100%" overflow="visible" style="display: block;" viewBox="0 0 46.7771 24.3799" fill="none" xmlns="http://www.w3.org/2000/svg">
<path id="Ellipse 159" d="M39.7685 1.90735e-06C44.1867 1.90735e-06 47.8916 3.67471 46.4676 7.85724C46.2987 8.35327 46.1137 8.84439 45.9126 9.32978C44.6874 12.2877 42.8916 14.9753 40.6278 17.2392C38.3639 19.5031 35.6763 21.2989 32.7183 22.5241C29.7604 23.7493 26.5902 24.3799 23.3886 24.3799C20.187 24.3799 17.0167 23.7493 14.0588 22.5241C11.1009 21.2989 8.41327 19.5031 6.14939 17.2392C3.88551 14.9753 2.0897 12.2877 0.864497 9.32978C0.663441 8.84438 0.478396 8.35327 0.309523 7.85724C-1.11442 3.67471 2.59041 8.91156e-08 7.00869 4.75374e-07L23.3886 1.90735e-06H39.7685Z" fill="var(--fill-0, #1A1A1A)"/>
</svg>
