<svg preserveAspectRatio="none" width="100%" height="100%" overflow="visible" style="display: block;" viewBox="0 0 159.071 159.074" fill="none" xmlns="http://www.w3.org/2000/svg">
<path id="Union" d="M87.3152 40.9467C87.3152 44.1682 89.6058 46.908 92.5799 48.146C95.5545 49.3842 99.0426 49.0304 101.321 46.7522L127.446 20.6273C129.008 19.0652 131.54 19.0652 133.103 20.6273L138.449 25.9733C140.011 27.5354 140.011 30.0681 138.449 31.6302L112.32 57.7583C110.043 60.0353 109.689 63.5215 110.926 66.4946C112.163 69.4679 114.902 71.7578 118.123 71.7578H155.071C157.28 71.7578 159.071 73.5488 159.071 75.7581L159.07 83.3176C159.07 85.5267 157.279 87.3174 155.07 87.3174H118.121C114.901 87.3174 112.162 89.607 110.924 92.5801C109.686 95.5534 110.04 99.0402 112.317 101.318L138.449 127.449C140.011 129.011 140.011 131.544 138.448 133.106L133.103 138.451C131.54 140.013 129.008 140.013 127.446 138.451L101.314 112.319C99.0366 110.042 95.5506 109.688 92.5776 110.925C89.6046 112.162 87.3152 114.9 87.3152 118.12V155.074C87.3152 157.283 85.5243 159.074 83.3152 159.074H75.7555C73.5464 159.074 71.7556 157.283 71.7555 155.074L71.7547 118.119C71.7547 114.9 69.4656 112.162 66.4928 110.926C63.5199 109.689 60.0345 110.043 57.7579 112.32L31.6259 138.453C30.0639 140.015 27.5313 140.015 25.9691 138.453L20.6233 133.108C19.0611 131.546 19.061 129.013 20.6231 127.451L46.7527 101.32C49.0305 99.0425 49.3843 95.5551 48.1464 92.581C46.9087 89.6074 44.1695 87.3174 40.9486 87.3174H4C1.79076 87.3174 -0.00013865 85.5264 8.06176e-09 83.3171L0.000474468 75.7576C0.000613114 73.5485 1.79143 71.7578 4.00047 71.7578H40.9474C44.1683 71.7578 46.9075 69.4676 48.1447 66.4937C49.3819 63.5199 49.0279 60.033 46.7504 57.7555L20.6231 31.6282C19.061 30.0661 19.061 27.5335 20.6231 25.9714L25.9682 20.6263C27.5303 19.0642 30.063 19.0642 31.6251 20.6263L57.7504 46.7517C60.0284 49.0297 63.5161 49.3835 66.4904 48.1457C69.4643 46.9079 71.7546 44.1685 71.7546 40.9473V4.68784L71.7548 3.99917C71.7552 1.79036 73.546 0 75.7548 0H83.3152C85.5243 0 87.3152 1.79086 87.3152 4V40.9467Z" fill="var(--fill-0, #333333)"/>
</svg>
